<mxfile host="app.diagrams.net" agent="Mozilla/5.0 (Windows NT 10.0; Win64; x64) AppleWebKit/537.36 (KHTML, like Gecko) Chrome/130.0.0.0 Safari/537.36" version="26.0.5">
  <diagram name="Страница — 1" id="iWrHua7sZpsQWtT9sDI7">
    <mxGraphModel dx="1304" dy="678" grid="1" gridSize="10" guides="1" tooltips="1" connect="1" arrows="1" fold="1" page="1" pageScale="1" pageWidth="827" pageHeight="1169" math="0" shadow="0">
      <root>
        <mxCell id="0" />
        <mxCell id="1" parent="0" />
        <object placeholders="1" c4Name="БД только для записи" c4Type="Container" c4Technology="PostgreSQL" c4Description="Хранит данные от служб мониторинга" label="&lt;font style=&quot;font-size: 16px&quot;&gt;&lt;b&gt;%c4Name%&lt;/b&gt;&lt;/font&gt;&lt;div&gt;[%c4Type%:&amp;nbsp;%c4Technology%]&lt;/div&gt;&lt;br&gt;&lt;div&gt;&lt;font style=&quot;font-size: 11px&quot;&gt;&lt;font color=&quot;#E6E6E6&quot;&gt;%c4Description%&lt;/font&gt;&lt;/div&gt;" id="i3Rb2WbI_xRqSZmqgp21-1">
          <mxCell style="shape=cylinder3;size=15;whiteSpace=wrap;html=1;boundedLbl=1;rounded=0;labelBackgroundColor=none;fillColor=#23A2D9;fontSize=12;fontColor=#ffffff;align=center;strokeColor=#0E7DAD;metaEdit=1;points=[[0.5,0,0],[1,0.25,0],[1,0.5,0],[1,0.75,0],[0.5,1,0],[0,0.75,0],[0,0.5,0],[0,0.25,0]];resizable=0;" vertex="1" parent="1">
            <mxGeometry x="1000" y="40" width="240" height="120" as="geometry" />
          </mxCell>
        </object>
        <object placeholders="1" c4Name="БД только для чтения" c4Type="Container" c4Technology="PostgreSQL" c4Description="Хранит данные от служб мониторинга" label="&lt;font style=&quot;font-size: 16px&quot;&gt;&lt;b&gt;%c4Name%&lt;/b&gt;&lt;/font&gt;&lt;div&gt;[%c4Type%:&amp;nbsp;%c4Technology%]&lt;/div&gt;&lt;br&gt;&lt;div&gt;&lt;font style=&quot;font-size: 11px&quot;&gt;&lt;font color=&quot;#E6E6E6&quot;&gt;%c4Description%&lt;/font&gt;&lt;/div&gt;" id="i3Rb2WbI_xRqSZmqgp21-2">
          <mxCell style="shape=cylinder3;size=15;whiteSpace=wrap;html=1;boundedLbl=1;rounded=0;labelBackgroundColor=none;fillColor=#23A2D9;fontSize=12;fontColor=#ffffff;align=center;strokeColor=#0E7DAD;metaEdit=1;points=[[0.5,0,0],[1,0.25,0],[1,0.5,0],[1,0.75,0],[0.5,1,0],[0,0.75,0],[0,0.5,0],[0,0.25,0]];resizable=0;" vertex="1" parent="1">
            <mxGeometry x="1320" y="40" width="240" height="120" as="geometry" />
          </mxCell>
        </object>
        <object placeholders="1" c4Name="Сервис анализа данных" c4Type="Container" c4Technology="ASP.Net Core WebApi, VueJS, &#xa;NCrontab" c4Description="- Запускает регулярную &#xa;задачу по анализу данных.&#xa;- Подготавливает данные для панелей мониторинга и отчетов." label="&lt;font style=&quot;font-size: 16px&quot;&gt;&lt;b&gt;%c4Name%&lt;/b&gt;&lt;/font&gt;&lt;div&gt;[%c4Type%: %c4Technology%]&lt;/div&gt;&lt;br&gt;&lt;div&gt;&lt;font style=&quot;font-size: 11px&quot;&gt;&lt;font color=&quot;#E6E6E6&quot;&gt;%c4Description%&lt;/font&gt;&lt;/div&gt;" id="i3Rb2WbI_xRqSZmqgp21-3">
          <mxCell style="rounded=1;whiteSpace=wrap;html=1;fontSize=11;labelBackgroundColor=none;fillColor=#23A2D9;fontColor=#ffffff;align=center;arcSize=10;strokeColor=#0E7DAD;metaEdit=1;resizable=0;points=[[0.25,0,0],[0.5,0,0],[0.75,0,0],[1,0.25,0],[1,0.5,0],[1,0.75,0],[0.75,1,0],[0.5,1,0],[0.25,1,0],[0,0.75,0],[0,0.5,0],[0,0.25,0]];" vertex="1" parent="1">
            <mxGeometry x="680" y="40" width="240" height="120" as="geometry" />
          </mxCell>
        </object>
        <object placeholders="1" c4Name="БД для хранения агрегированных данных" c4Type="Container" c4Technology="MongoDB" c4Description="Хранит агрегированные данные для отчетов &#xa;и мониторинговых панелей" label="&lt;font style=&quot;font-size: 16px&quot;&gt;&lt;b&gt;%c4Name%&lt;/b&gt;&lt;/font&gt;&lt;div&gt;[%c4Type%:&amp;nbsp;%c4Technology%]&lt;/div&gt;&lt;br&gt;&lt;div&gt;&lt;font style=&quot;font-size: 11px&quot;&gt;&lt;font color=&quot;#E6E6E6&quot;&gt;%c4Description%&lt;/font&gt;&lt;/div&gt;" id="i3Rb2WbI_xRqSZmqgp21-4">
          <mxCell style="shape=cylinder3;size=15;whiteSpace=wrap;html=1;boundedLbl=1;rounded=0;labelBackgroundColor=none;fillColor=#23A2D9;fontSize=12;fontColor=#ffffff;align=center;strokeColor=#0E7DAD;metaEdit=1;points=[[0.5,0,0],[1,0.25,0],[1,0.5,0],[1,0.75,0],[0.5,1,0],[0,0.75,0],[0,0.5,0],[0,0.25,0]];resizable=0;" vertex="1" parent="1">
            <mxGeometry x="1640.5" y="40" width="240" height="120" as="geometry" />
          </mxCell>
        </object>
        <mxCell id="i3Rb2WbI_xRqSZmqgp21-9" value="" style="endArrow=none;dashed=1;html=1;rounded=0;entryX=0.523;entryY=1.014;entryDx=0;entryDy=0;entryPerimeter=0;" edge="1" parent="1">
          <mxGeometry width="50" height="50" relative="1" as="geometry">
            <mxPoint x="800" y="440" as="sourcePoint" />
            <mxPoint x="799.5" y="160" as="targetPoint" />
          </mxGeometry>
        </mxCell>
        <mxCell id="i3Rb2WbI_xRqSZmqgp21-10" value="" style="endArrow=none;dashed=1;html=1;rounded=0;entryX=0.523;entryY=1.014;entryDx=0;entryDy=0;entryPerimeter=0;" edge="1" parent="1">
          <mxGeometry width="50" height="50" relative="1" as="geometry">
            <mxPoint x="1120" y="440" as="sourcePoint" />
            <mxPoint x="1119.5" y="160" as="targetPoint" />
          </mxGeometry>
        </mxCell>
        <mxCell id="i3Rb2WbI_xRqSZmqgp21-11" value="" style="endArrow=none;dashed=1;html=1;rounded=0;entryX=0.523;entryY=1.014;entryDx=0;entryDy=0;entryPerimeter=0;" edge="1" parent="1" source="i3Rb2WbI_xRqSZmqgp21-17">
          <mxGeometry width="50" height="50" relative="1" as="geometry">
            <mxPoint x="1440" y="610" as="sourcePoint" />
            <mxPoint x="1439.5" y="160" as="targetPoint" />
          </mxGeometry>
        </mxCell>
        <mxCell id="i3Rb2WbI_xRqSZmqgp21-12" value="" style="endArrow=none;dashed=1;html=1;rounded=0;entryX=0.523;entryY=1.014;entryDx=0;entryDy=0;entryPerimeter=0;" edge="1" parent="1" source="i3Rb2WbI_xRqSZmqgp21-21">
          <mxGeometry width="50" height="50" relative="1" as="geometry">
            <mxPoint x="1760" y="640" as="sourcePoint" />
            <mxPoint x="1760" y="160" as="targetPoint" />
          </mxGeometry>
        </mxCell>
        <mxCell id="i3Rb2WbI_xRqSZmqgp21-13" value="" style="html=1;points=[[0,0,0,0,5],[0,1,0,0,-5],[1,0,0,0,5],[1,1,0,0,-5]];perimeter=orthogonalPerimeter;outlineConnect=0;targetShapes=umlLifeline;portConstraint=eastwest;newEdgeStyle={&quot;curved&quot;:0,&quot;rounded&quot;:0};fillColor=light-dark(#23458b, #6db2ff);fontColor=#ffffff;strokeColor=#001DBC;" vertex="1" parent="1">
          <mxGeometry x="1115" y="200" width="10" height="40" as="geometry" />
        </mxCell>
        <mxCell id="i3Rb2WbI_xRqSZmqgp21-14" value="" style="endArrow=classic;html=1;rounded=0;" edge="1" parent="1">
          <mxGeometry relative="1" as="geometry">
            <mxPoint x="1125" y="222" as="sourcePoint" />
            <mxPoint x="1440" y="222" as="targetPoint" />
          </mxGeometry>
        </mxCell>
        <mxCell id="i3Rb2WbI_xRqSZmqgp21-15" value="Реплицирует данные" style="edgeLabel;resizable=0;html=1;;align=center;verticalAlign=middle;" connectable="0" vertex="1" parent="i3Rb2WbI_xRqSZmqgp21-14">
          <mxGeometry relative="1" as="geometry" />
        </mxCell>
        <mxCell id="i3Rb2WbI_xRqSZmqgp21-16" value="" style="html=1;points=[[0,0,0,0,5],[0,1,0,0,-5],[1,0,0,0,5],[1,1,0,0,-5]];perimeter=orthogonalPerimeter;outlineConnect=0;targetShapes=umlLifeline;portConstraint=eastwest;newEdgeStyle={&quot;curved&quot;:0,&quot;rounded&quot;:0};fillColor=light-dark(#23458b, #6db2ff);fontColor=#ffffff;strokeColor=#001DBC;" vertex="1" parent="1">
          <mxGeometry x="795" y="280" width="10" height="110" as="geometry" />
        </mxCell>
        <mxCell id="i3Rb2WbI_xRqSZmqgp21-18" value="" style="endArrow=none;dashed=1;html=1;rounded=0;entryX=0.523;entryY=1.014;entryDx=0;entryDy=0;entryPerimeter=0;" edge="1" parent="1" target="i3Rb2WbI_xRqSZmqgp21-17">
          <mxGeometry width="50" height="50" relative="1" as="geometry">
            <mxPoint x="1440" y="440" as="sourcePoint" />
            <mxPoint x="1439.5" y="160" as="targetPoint" />
          </mxGeometry>
        </mxCell>
        <mxCell id="i3Rb2WbI_xRqSZmqgp21-17" value="" style="html=1;points=[[0,0,0,0,5],[0,1,0,0,-5],[1,0,0,0,5],[1,1,0,0,-5]];perimeter=orthogonalPerimeter;outlineConnect=0;targetShapes=umlLifeline;portConstraint=eastwest;newEdgeStyle={&quot;curved&quot;:0,&quot;rounded&quot;:0};fillColor=light-dark(#23458b, #6db2ff);fontColor=#ffffff;strokeColor=#001DBC;" vertex="1" parent="1">
          <mxGeometry x="1435" y="290" width="10" height="30" as="geometry" />
        </mxCell>
        <mxCell id="i3Rb2WbI_xRqSZmqgp21-19" value="" style="endArrow=classic;html=1;rounded=0;" edge="1" parent="1" target="i3Rb2WbI_xRqSZmqgp21-17">
          <mxGeometry relative="1" as="geometry">
            <mxPoint x="805" y="290" as="sourcePoint" />
            <mxPoint x="1120" y="290" as="targetPoint" />
          </mxGeometry>
        </mxCell>
        <mxCell id="i3Rb2WbI_xRqSZmqgp21-20" value="Запускает регулярную задачу по анализу и агрегации данных" style="edgeLabel;resizable=0;html=1;;align=center;verticalAlign=middle;" connectable="0" vertex="1" parent="i3Rb2WbI_xRqSZmqgp21-19">
          <mxGeometry relative="1" as="geometry" />
        </mxCell>
        <mxCell id="i3Rb2WbI_xRqSZmqgp21-22" value="" style="endArrow=none;dashed=1;html=1;rounded=0;entryX=0.523;entryY=1.014;entryDx=0;entryDy=0;entryPerimeter=0;" edge="1" parent="1" target="i3Rb2WbI_xRqSZmqgp21-21">
          <mxGeometry width="50" height="50" relative="1" as="geometry">
            <mxPoint x="1761" y="440" as="sourcePoint" />
            <mxPoint x="1760" y="160" as="targetPoint" />
          </mxGeometry>
        </mxCell>
        <mxCell id="i3Rb2WbI_xRqSZmqgp21-21" value="" style="html=1;points=[[0,0,0,0,5],[0,1,0,0,-5],[1,0,0,0,5],[1,1,0,0,-5]];perimeter=orthogonalPerimeter;outlineConnect=0;targetShapes=umlLifeline;portConstraint=eastwest;newEdgeStyle={&quot;curved&quot;:0,&quot;rounded&quot;:0};fillColor=light-dark(#23458b, #6db2ff);fontColor=#ffffff;strokeColor=#001DBC;" vertex="1" parent="1">
          <mxGeometry x="1755.5" y="360" width="10" height="30" as="geometry" />
        </mxCell>
        <mxCell id="i3Rb2WbI_xRqSZmqgp21-23" value="" style="endArrow=classic;html=1;rounded=0;" edge="1" parent="1" target="i3Rb2WbI_xRqSZmqgp21-21">
          <mxGeometry relative="1" as="geometry">
            <mxPoint x="805" y="359" as="sourcePoint" />
            <mxPoint x="1435" y="359" as="targetPoint" />
          </mxGeometry>
        </mxCell>
        <mxCell id="i3Rb2WbI_xRqSZmqgp21-24" value="Сохраняет агрегированные данные" style="edgeLabel;resizable=0;html=1;;align=center;verticalAlign=middle;" connectable="0" vertex="1" parent="i3Rb2WbI_xRqSZmqgp21-23">
          <mxGeometry relative="1" as="geometry" />
        </mxCell>
        <mxCell id="i3Rb2WbI_xRqSZmqgp21-41" value="Получает агрегированные&lt;span style=&quot;background-color: light-dark(#ffffff, var(--ge-dark-color, #121212)); color: light-dark(rgb(0, 0, 0), rgb(255, 255, 255));&quot;&gt;&amp;nbsp;данные&lt;/span&gt;" style="endArrow=open;endSize=12;dashed=1;html=1;rounded=0;" edge="1" parent="1">
          <mxGeometry width="160" relative="1" as="geometry">
            <mxPoint x="1435" y="319.0000000000001" as="sourcePoint" />
            <mxPoint x="805" y="319.0000000000001" as="targetPoint" />
            <mxPoint as="offset" />
          </mxGeometry>
        </mxCell>
      </root>
    </mxGraphModel>
  </diagram>
</mxfile>
